<?xml version="1.0" standalone="no"?>
<!DOCTYPE svg PUBLIC "-//W3C//DTD SVG 20010904//EN"
 "http://www.w3.org/TR/2001/REC-SVG-20010904/DTD/svg10.dtd">
<svg version="1.0" xmlns="http://www.w3.org/2000/svg"
 width="260.000000pt" height="260.000000pt" viewBox="0 0 260.000000 260.000000"
 preserveAspectRatio="xMidYMid meet">
<metadata>
Created by potrace 1.11, written by Peter Selinger 2001-2013
</metadata>
<g transform="translate(0.000000,260.000000) scale(0.100000,-0.100000)"
fill="#000000" stroke="none">
<path d="M525 2578 c-4 -15 -32 -145 -70 -328 -15 -69 -44 -210 -66 -315 -66
-315 -71 -339 -76 -365 -2 -14 -9 -45 -14 -70 -13 -56 -69 -326 -75 -360 -3
-14 -7 -32 -9 -40 -2 -8 -7 -28 -9 -45 -3 -16 -31 -149 -61 -295 -31 -146 -67
-319 -81 -385 -14 -66 -34 -158 -44 -205 -21 -92 -19 -98 35 -95 28 1 35 -3
40 -22 3 -13 11 -23 17 -23 9 0 9 3 0 12 -7 7 -12 19 -12 27 0 11 4 10 16 -5
8 -10 13 -14 10 -8 -4 8 9 13 39 16 36 2 44 0 40 -12 -2 -8 0 -22 6 -30 8 -12
9 -9 4 9 -5 17 -4 22 5 16 8 -5 11 -4 7 2 -4 6 0 13 8 17 8 3 17 0 21 -6 4 -7
10 -6 16 3 6 9 7 2 4 -21 l-6 -35 13 34 c9 22 16 31 21 23 4 -7 5 -16 1 -21
-9 -15 13 -23 32 -11 16 9 15 10 -4 5 -18 -5 -22 -3 -17 9 3 8 12 17 20 20 8
3 13 2 10 -3 -3 -5 1 -12 10 -15 8 -3 12 -2 9 4 -3 6 4 10 16 10 18 0 20 -3
11 -12 -7 -7 -12 -16 -12 -22 0 -5 11 4 25 20 14 16 25 24 25 19 0 -19 66 -5
66 13 1 10 4 33 8 52 4 19 9 53 12 74 3 21 13 46 23 55 9 9 11 12 3 7 -10 -7
-12 -3 -7 20 4 16 7 35 7 42 1 6 5 12 10 12 5 0 6 5 2 12 -4 7 -3 8 4 4 7 -4
12 -3 12 3 0 5 -5 11 -12 13 -7 3 -8 9 -3 18 5 8 10 28 12 45 2 16 6 37 10 45
3 8 7 24 8 35 4 42 16 76 25 70 6 -3 10 -1 10 4 0 6 -4 11 -9 11 -5 0 -7 12
-4 28 3 15 6 33 6 40 0 6 4 12 8 12 4 0 5 8 2 19 -3 11 2 21 11 24 9 4 16 12
16 19 0 9 -3 8 -10 -2 -8 -13 -10 -13 -10 2 0 9 8 24 17 33 16 16 17 16 30 -1
7 -10 13 -13 13 -7 0 7 -5 15 -10 18 -12 7 -4 25 11 25 6 0 8 -4 4 -9 -3 -5
-1 -12 4 -15 5 -4 12 -2 15 3 4 5 2 12 -4 16 -6 4 -7 11 -4 17 4 5 -4 4 -17
-3 -13 -7 -28 -12 -32 -11 -5 1 -6 -2 -2 -8 3 -5 1 -10 -4 -10 -21 0 -11 26
13 36 23 8 23 10 8 24 -14 13 -15 12 -9 -3 3 -9 2 -17 -3 -17 -6 0 -10 9 -10
20 0 11 5 20 11 20 6 0 8 9 4 20 -3 11 -3 25 1 32 7 11 13 41 16 76 2 18 16
15 28 -7 14 -28 12 -36 -5 -21 -10 9 -15 9 -15 1 0 -6 4 -11 9 -11 5 0 12 -9
16 -19 6 -19 7 -19 24 -3 22 21 18 30 -6 11 -15 -12 -16 -12 -10 4 4 10 2 27
-3 37 -7 13 -7 21 0 25 5 3 10 1 10 -4 0 -6 5 -11 11 -11 8 0 8 5 -1 15 -9 11
-16 12 -25 5 -9 -7 -15 -7 -19 -1 -9 14 34 25 47 12 6 -6 16 -11 21 -11 6 0 0
7 -12 16 -12 8 -31 13 -42 9 -20 -6 -20 -9 -1 67 5 20 6 40 2 44 -3 4 2 4 12
1 15 -6 16 -4 6 14 -7 14 -8 24 -1 31 6 6 8 17 5 24 -7 19 9 18 33 -2 16 -13
16 -15 2 -10 -10 3 -18 1 -18 -4 0 -6 7 -10 16 -10 8 0 12 -5 9 -10 -4 -7 -14
-6 -28 1 -20 9 -20 9 -5 -4 10 -8 14 -17 10 -22 -4 -4 3 -1 15 6 13 8 22 21
20 29 -1 9 4 14 13 12 8 -2 11 0 7 5 -5 4 -12 8 -15 9 -4 0 -19 6 -33 13 -25
12 -26 16 -17 50 6 20 13 43 16 51 5 17 7 27 16 87 3 23 10 52 15 65 4 13 6
28 4 35 -2 6 1 14 6 18 7 4 9 -1 5 -12 -5 -15 -4 -15 4 -3 8 10 8 18 1 27 -6
7 -8 16 -5 21 3 5 8 27 11 48 4 22 9 48 13 59 6 19 7 25 11 43 1 4 8 -8 17
-27 10 -24 11 -38 4 -45 -5 -5 -10 -15 -10 -21 0 -5 4 -4 9 4 12 19 30 -17
131 -269 45 -113 88 -218 95 -235 7 -16 107 -264 222 -550 114 -286 211 -519
215 -518 4 1 21 -2 38 -7 16 -5 30 -6 30 -2 0 4 13 7 30 7 22 0 29 -4 25 -16
-7 -22 19 -56 30 -39 5 8 4 11 -2 7 -6 -4 -14 0 -17 9 -9 22 -8 26 6 18 6 -4
8 -3 5 3 -4 6 0 13 8 17 8 3 17 0 21 -6 4 -7 10 -6 16 3 6 9 7 2 4 -21 l-6
-35 13 34 c9 22 16 31 21 23 4 -7 5 -16 1 -21 -9 -15 13 -23 32 -11 16 9 15
10 -4 5 -18 -5 -22 -3 -17 9 3 8 12 17 20 20 8 3 13 2 10 -3 -3 -5 1 -12 10
-15 8 -3 12 -2 9 4 -3 6 4 10 16 10 18 0 20 -3 11 -12 -7 -7 -12 -17 -12 -22
0 -6 5 -4 10 4 9 13 12 12 25 -4 8 -11 15 -15 15 -9 0 7 -4 15 -10 18 -5 3
-10 13 -10 20 0 11 6 12 25 5 17 -7 25 -6 25 1 0 6 8 3 18 -8 9 -10 13 -13 8
-6 -13 20 34 16 57 -5 19 -16 20 -16 8 5 -10 20 -9 22 5 16 12 -4 15 -3 10 5
-4 7 -3 12 2 12 16 0 22 -13 11 -27 -9 -9 -8 -13 0 -13 6 0 11 4 11 9 0 5 8
11 19 14 12 3 18 13 17 28 -1 25 -27 34 -32 11 -1 -7 0 -8 3 -2 8 17 19 11 19
-10 0 -22 -18 -26 -34 -7 -8 10 -10 62 -3 62 1 0 4 16 7 34 2 19 8 37 13 40 4
4 8 15 8 26 -1 58 4 82 18 82 17 0 20 -13 5 -20 -6 -3 -5 -4 2 -3 7 1 13 12
14 23 1 13 -4 19 -11 17 -6 -3 -12 2 -12 11 0 18 2 18 30 5 22 -10 22 -10 0 6
-13 9 -23 24 -23 33 1 13 3 13 17 -4 14 -18 15 -18 9 -1 -3 10 -1 25 5 32 8
10 8 14 0 14 -6 0 -11 -4 -11 -10 0 -5 -5 -10 -10 -10 -7 0 -7 6 -1 19 6 10 8
21 4 24 -3 4 -1 13 5 20 7 8 9 17 5 20 -3 4 -3 7 1 7 14 0 35 -28 28 -36 -4
-5 1 -2 11 5 9 7 17 19 17 25 0 6 -4 4 -10 -4 -8 -12 -10 -12 -16 3 -3 9 -14
17 -23 17 -9 0 -12 3 -6 8 6 4 10 13 11 20 1 6 2 21 3 32 0 11 5 20 11 20 5 0
8 -6 6 -12 -1 -7 -1 -10 1 -5 3 4 9 5 14 1 5 -3 9 -1 9 4 0 6 -7 12 -15 16
-21 8 -19 25 8 46 18 15 20 21 9 32 -11 11 -12 10 -7 -3 4 -10 0 -19 -9 -22
-9 -4 -16 -2 -16 3 0 6 4 10 8 10 4 0 8 10 9 23 2 62 18 93 38 77 16 -13 35
-5 35 13 0 7 -9 18 -20 25 -11 7 -20 8 -20 3 0 -5 7 -11 15 -15 8 -3 15 -10
15 -16 0 -7 -6 -8 -19 -1 -10 6 -22 7 -26 3 -5 -4 -5 2 -1 12 4 11 9 35 12 55
3 20 10 44 15 53 5 9 6 24 3 32 -3 9 -1 16 6 16 6 0 8 -5 4 -12 -4 -7 -3 -8 5
-4 9 6 9 11 0 22 -6 8 -8 18 -4 22 4 4 10 1 12 -5 3 -7 9 -13 15 -13 6 0 3 9
-7 20 -20 22 -8 28 15 7 12 -10 12 -9 1 6 -7 9 -20 17 -28 17 -10 0 -11 4 -3
19 5 11 10 29 10 40 0 13 7 21 18 21 9 0 13 4 7 8 -14 10 -17 39 -5 47 6 4 17
1 25 -5 8 -6 22 -10 32 -7 16 4 16 5 -2 6 -29 2 -58 27 -49 42 4 7 8 25 9 41
3 38 11 44 32 27 11 -9 14 -10 9 -1 -4 7 -2 12 6 12 10 0 10 2 -1 9 -8 5 -21
7 -30 3 -13 -4 -12 -1 3 16 15 18 16 24 6 37 -23 28 9 17 36 -12 l26 -28 -22
33 c-12 17 -26 32 -32 32 -6 0 -7 8 -3 18 4 9 9 33 11 52 3 19 9 39 15 45 7 7
9 5 6 -5 -2 -8 -2 -12 0 -7 3 4 8 5 12 3 11 -7 36 12 28 21 -5 4 -12 1 -16 -6
-5 -8 -11 -9 -15 -3 -7 11 19 36 31 29 4 -3 8 6 8 19 0 23 0 23 -23 -6 -13
-17 -28 -30 -34 -30 -7 0 -7 4 1 13 6 8 8 17 4 20 -3 4 2 7 13 8 10 0 13 3 7
6 -14 5 -17 35 -6 47 5 4 9 20 10 34 0 15 5 41 11 57 5 17 8 38 7 47 -2 9 2
15 9 12 6 -2 16 4 23 15 10 15 9 20 -2 25 -9 3 -12 0 -8 -10 3 -7 0 -14 -5
-14 -12 0 -5 53 8 58 4 2 6 11 3 21 -6 24 13 61 32 61 8 0 15 -4 15 -10 0 -5
-6 -10 -14 -10 -8 0 -18 -4 -21 -10 -4 -6 2 -7 17 -1 30 11 30 36 0 35 -18 0
-21 3 -16 20 4 12 11 24 16 27 6 4 5 8 -3 11 -11 4 -11 8 -2 19 13 16 13 17
13 58 0 21 5 28 17 27 12 -1 18 8 20 29 1 20 -1 25 -6 16 -5 -8 -7 -21 -4 -30
5 -12 3 -13 -7 -5 -8 8 -9 20 -4 35 4 13 7 32 5 43 -2 11 2 16 9 11 7 -5 10 2
7 22 -2 17 2 32 12 39 17 13 44 7 35 -7 -3 -5 -9 -7 -14 -4 -9 6 -23 -25 -15
-33 3 -3 5 0 5 7 0 7 4 10 9 7 5 -3 12 2 16 12 7 16 8 15 15 -3 7 -16 9 -17 9
-3 1 20 -36 49 -53 42 -7 -3 -13 2 -13 10 0 8 4 13 8 11 4 -3 7 5 7 18 -1 42
6 76 15 70 4 -2 5 7 1 21 -5 20 -2 26 10 26 9 0 16 5 16 11 0 5 -4 7 -10 4 -6
-4 -8 7 -5 27 3 18 6 39 7 46 1 6 4 12 8 12 4 0 5 12 2 26 -3 16 -1 25 5 21 5
-3 8 6 5 24 l-4 29 -239 0 c-132 0 -239 -2 -239 -4 0 -4 -140 -675 -215 -1031
-20 -93 -52 -246 -72 -340 -19 -93 -38 -185 -40 -203 -4 -27 -9 -33 -24 -29
-12 3 -17 1 -13 -6 3 -7 -2 -3 -10 7 -9 11 -16 25 -16 32 0 6 -7 24 -14 40 -8
15 -13 31 -10 36 3 4 0 8 -5 8 -6 0 -11 8 -11 18 0 9 -13 44 -29 77 -29 61
-31 81 -4 71 8 -3 11 -1 8 4 -4 6 -13 9 -21 8 -10 -2 -25 20 -44 64 -16 37
-30 76 -32 85 -2 10 -6 20 -9 23 -4 3 -20 40 -37 82 -22 57 -26 80 -18 89 8 9
7 11 -6 6 -10 -3 -19 0 -22 9 -8 21 -8 24 5 24 5 0 7 -5 3 -12 -5 -7 -3 -8 6
-3 9 5 5 14 -15 31 -26 22 -26 29 -1 25 5 -1 5 4 -1 11 -6 7 -9 21 -8 30 2 11
-2 15 -12 11 -8 -3 -11 -9 -6 -12 9 -7 16 -31 8 -31 -2 0 -9 10 -16 22 -10 18
-8 24 11 38 17 13 20 19 10 25 -9 6 -11 4 -5 -5 6 -10 4 -12 -9 -7 -12 5 -15
3 -10 -6 5 -8 2 -7 -9 2 -10 8 -15 16 -12 19 3 3 -2 17 -11 30 -15 23 -15 26
0 37 20 15 20 22 1 22 -8 0 -12 -4 -9 -9 3 -4 1 -8 -4 -8 -9 0 -26 48 -22 59
1 2 -4 8 -12 12 -10 7 -8 13 11 28 18 14 21 20 11 26 -8 5 -11 4 -7 -2 4 -6
-1 -14 -10 -17 -17 -7 -33 9 -33 32 0 7 6 10 13 7 6 -3 2 1 -10 10 -21 16 -21
18 -6 43 9 15 13 24 8 20 -4 -4 -15 -2 -24 5 -14 11 -14 10 -2 -6 8 -9 11 -20
8 -24 -9 -9 -36 58 -30 74 3 7 0 13 -7 13 -7 0 -10 8 -7 20 3 10 2 19 -2 18
-20 -2 -22 4 -5 24 10 12 13 18 5 13 -11 -6 -13 -4 -8 9 4 10 3 15 -3 11 -6
-3 -10 -1 -10 6 0 7 -3 10 -6 7 -3 -4 -1 -16 6 -27 6 -12 7 -21 2 -21 -5 0
-13 15 -19 34 -9 30 -9 34 6 30 9 -3 6 1 -6 7 -12 6 -24 18 -27 26 -3 8 -1 11
4 8 6 -3 10 -2 10 3 0 6 -6 12 -13 15 -6 2 -21 29 -31 58 -10 30 -23 60 -29
66 -6 9 -2 16 14 23 l24 11 -23 -5 c-21 -4 -27 3 -48 50 l-24 54 -240 0 c-184
0 -242 -3 -245 -12z m1175 -1618 c0 -5 -7 -10 -16 -10 -8 0 -12 5 -9 10 3 6
10 10 16 10 5 0 9 -4 9 -10z"/>
<path d="M1050 2521 c0 -6 4 -13 10 -16 6 -3 7 1 4 9 -7 18 -14 21 -14 7z"/>
<path d="M2577 2515 c-4 -8 -3 -16 1 -19 4 -3 9 4 9 15 2 23 -3 25 -10 4z"/>
<path d="M2530 2505 c0 -3 8 -15 18 -26 13 -13 19 -15 19 -5 0 7 -9 18 -19 25
-10 6 -18 9 -18 6z"/>
<path d="M1090 2461 c0 -6 4 -12 8 -15 5 -3 9 1 9 9 0 8 -4 15 -9 15 -4 0 -8
-4 -8 -9z"/>
<path d="M2507 2445 c-6 -15 10 -32 20 -21 4 3 1 6 -7 6 -10 0 -10 3 0 15 7 9
8 15 2 15 -5 0 -12 -7 -15 -15z"/>
<path d="M2542 2440 c0 -14 2 -19 5 -12 2 6 2 18 0 25 -3 6 -5 1 -5 -13z"/>
<path d="M2520 2380 c-8 -5 -18 -6 -22 -4 -4 3 -5 -2 -2 -10 5 -14 8 -14 21 0
9 8 18 12 21 9 4 -3 1 -10 -7 -14 -10 -7 -10 -9 1 -14 9 -3 14 2 15 14 2 23
-9 30 -27 19z"/>
<path d="M1115 2370 c3 -5 8 -10 11 -10 2 0 4 5 4 10 0 6 -5 10 -11 10 -5 0
-7 -4 -4 -10z"/>
<path d="M2496 2331 c-4 -5 3 -7 14 -4 23 6 26 13 6 13 -8 0 -17 -4 -20 -9z"/>
<path d="M1150 2316 c0 -8 7 -17 16 -20 13 -5 14 -4 6 7 -7 8 -9 17 -5 20 3 4
1 7 -5 7 -7 0 -12 -6 -12 -14z"/>
<path d="M2525 2320 c-16 -7 -17 -9 -3 -9 9 -1 20 4 23 9 7 11 7 11 -20 0z"/>
<path d="M2492 2296 c10 -7 14 -17 10 -21 -4 -5 -1 -5 6 -1 10 6 10 11 1 22
-6 8 -17 14 -23 14 -6 0 -3 -7 6 -14z"/>
<path d="M2476 2277 c3 -10 9 -15 12 -12 3 3 0 11 -7 18 -10 9 -11 8 -5 -6z"/>
<path d="M2502 2253 c-15 -13 -15 -13 3 -5 11 6 24 10 28 10 16 0 17 9 2 9 -9
0 -23 -7 -33 -14z"/>
<path d="M1206 2198 c3 -5 10 -6 15 -3 13 9 11 12 -6 12 -8 0 -12 -4 -9 -9z"/>
<path d="M1211 2173 c-1 -17 16 -25 25 -12 4 7 3 9 -4 5 -5 -3 -13 0 -15 6 -4
9 -6 10 -6 1z"/>
<path d="M2490 2160 c0 -5 5 -10 10 -10 6 0 10 5 10 10 0 6 -4 10 -10 10 -5 0
-10 -4 -10 -10z"/>
<path d="M2450 2132 c0 -6 5 -14 10 -17 6 -4 8 -16 4 -27 -5 -18 -4 -19 9 -7
14 13 13 16 -1 34 -9 11 -18 22 -19 24 -2 2 -3 -1 -3 -7z"/>
<path d="M2480 2125 c7 -8 17 -15 22 -15 5 0 3 7 -6 15 -8 8 -18 15 -22 15 -3
0 -1 -7 6 -15z"/>
<path d="M1225 2120 c3 -5 8 -10 11 -10 2 0 4 5 4 10 0 6 -5 10 -11 10 -5 0
-7 -4 -4 -10z"/>
<path d="M2465 2057 c-20 -16 -13 -38 13 -36 15 1 15 2 0 6 -10 2 -18 9 -18
15 0 5 7 7 16 4 8 -3 13 -2 9 3 -3 5 1 12 7 14 7 3 8 6 2 6 -5 1 -18 -5 -29
-12z"/>
<path d="M1268 2032 c9 -10 19 -17 21 -16 6 5 -20 34 -30 34 -5 0 -1 -8 9 -18z"/>
<path d="M2420 2019 c0 -5 5 -7 10 -4 6 3 10 2 10 -2 0 -5 6 -17 13 -28 11
-14 16 -15 22 -5 6 9 4 11 -5 5 -10 -6 -12 -4 -7 9 4 9 3 15 -2 12 -5 -3 -11
1 -15 9 -6 17 -26 20 -26 4z"/>
<path d="M2419 1950 c9 -9 19 -15 23 -13 3 2 8 -2 10 -9 3 -8 7 -6 11 5 3 9 3
16 -1 16 -4 -1 -14 -1 -22 0 -12 1 -13 3 -1 10 9 6 6 9 -12 9 -23 0 -23 -2 -8
-18z"/>
<path d="M1296 1932 c-2 -4 -1 -14 4 -22 7 -11 9 -9 7 8 -1 24 -3 26 -11 14z"/>
<path d="M2405 1920 c3 -5 8 -10 11 -10 2 0 4 5 4 10 0 6 -5 10 -11 10 -5 0
-7 -4 -4 -10z"/>
<path d="M1332 1841 c7 -9 13 -18 15 -20 1 -2 1 5 0 16 0 11 -7 20 -14 20 -10
0 -10 -4 -1 -16z"/>
<path d="M2430 1849 c0 -5 5 -7 10 -4 6 3 10 8 10 11 0 2 -4 4 -10 4 -5 0 -10
-5 -10 -11z"/>
<path d="M2410 1841 c0 -7 -4 -9 -10 -6 -5 3 -10 1 -10 -4 0 -6 4 -11 9 -11
13 0 25 20 17 27 -3 4 -6 1 -6 -6z"/>
<path d="M2430 1819 c0 -5 5 -7 10 -4 6 3 10 8 10 11 0 2 -4 4 -10 4 -5 0 -10
-5 -10 -11z"/>
<path d="M2382 1801 c-11 -7 -11 -9 2 -14 8 -3 20 -16 27 -28 10 -19 9 -21 -5
-16 -10 4 -15 3 -11 -3 3 -6 1 -10 -4 -10 -6 0 -11 -4 -11 -8 0 -5 7 -9 15 -9
8 0 12 4 10 8 -3 4 1 9 8 12 17 6 15 51 -1 53 -25 3 -26 6 -7 14 13 6 15 9 5
9 -8 0 -21 -3 -28 -8z"/>
<path d="M2359 1708 c-1 -7 -1 -17 0 -22 1 -4 -4 -16 -11 -25 -7 -9 -9 -13 -4
-9 5 4 16 -2 26 -14 13 -17 17 -18 17 -5 0 9 -4 14 -9 11 -9 -6 -11 5 -10 49
1 27 -7 39 -9 15z"/>
<path d="M833 1667 c-1 -11 -1 -18 0 -16 2 2 8 11 15 20 9 12 9 16 -1 16 -7 0
-14 -9 -14 -20z"/>
<path d="M2392 1671 c-11 -7 -11 -9 0 -14 9 -3 15 1 15 9 0 8 -1 14 -1 14 -1
0 -7 -4 -14 -9z"/>
<path d="M2343 1633 c4 -6 4 -13 0 -16 -5 -2 -2 -2 5 -1 7 2 15 -3 18 -11 4
-8 10 -15 15 -15 16 0 9 15 -18 34 -14 11 -23 15 -20 9z"/>
<path d="M845 1620 c-3 -5 -2 -10 4 -10 5 0 13 5 16 10 3 6 2 10 -4 10 -5 0
-13 -4 -16 -10z"/>
<path d="M1430 1601 c0 -6 5 -13 12 -17 7 -5 8 -3 3 6 -6 10 -4 12 9 7 10 -4
15 -3 11 3 -8 13 -35 13 -35 1z"/>
<path d="M815 1591 c-3 -5 0 -13 6 -17 7 -4 9 -3 5 4 -3 6 2 13 11 15 16 4 16
5 1 6 -9 0 -19 -3 -23 -8z"/>
<path d="M2343 1588 c-19 -24 -24 -38 -15 -38 5 0 14 11 20 25 13 27 10 32 -5
13z"/>
<path d="M851 1577 c-11 -14 -5 -27 12 -27 5 0 7 6 4 14 -4 9 1 17 11 19 15 4
15 5 1 6 -9 0 -22 -5 -28 -12z"/>
<path d="M2360 1574 c0 -6 7 -19 16 -30 14 -18 14 -18 3 6 -14 31 -19 36 -19
24z"/>
<path d="M834 1541 c3 -5 -1 -11 -9 -15 -8 -3 -15 -11 -14 -18 0 -10 2 -10 6
0 2 6 9 12 14 12 6 0 7 -6 3 -12 -5 -9 -2 -8 9 1 13 10 15 17 6 27 -13 16 -23
19 -15 5z"/>
<path d="M1457 1543 c-3 -5 0 -17 4 -28 9 -19 9 -19 5 2 -2 12 1 24 8 27 8 3
8 5 -1 5 -6 1 -14 -2 -16 -6z"/>
<path d="M855 1500 c-3 -5 -1 -10 4 -10 6 0 11 5 11 10 0 6 -2 10 -4 10 -3 0
-8 -4 -11 -10z"/>
<path d="M1490 1481 c0 -11 4 -22 9 -25 4 -3 6 6 3 19 -5 30 -12 33 -12 6z"/>
<path d="M795 1479 c-4 -6 -5 -12 -2 -15 2 -3 7 2 10 11 7 17 1 20 -8 4z"/>
<path d="M830 1480 c8 -5 20 -10 25 -10 6 0 3 5 -5 10 -8 5 -19 10 -25 10 -5
0 -3 -5 5 -10z"/>
<path d="M804 1456 c-15 -16 -12 -58 4 -64 6 -2 12 1 12 8 0 6 5 8 10 5 6 -4
7 -12 3 -18 -4 -7 0 -6 10 2 18 14 22 22 10 19 -5 -1 -18 4 -30 12 -21 13 -21
16 -6 32 9 10 12 18 7 18 -5 -1 -14 -7 -20 -14z m16 -40 c0 -3 -4 -8 -10 -11
-5 -3 -10 -1 -10 4 0 6 5 11 10 11 6 0 10 -2 10 -4z"/>
<path d="M2350 1449 c0 -5 -4 -7 -10 -4 -6 4 -7 -1 -3 -12 6 -16 5 -16 -11 -4
-12 10 -20 11 -27 4 -8 -8 -7 -13 2 -18 8 -5 10 -4 5 3 -4 7 -3 12 2 12 16 0
22 -13 11 -27 -6 -7 -8 -13 -3 -13 5 0 19 16 32 35 12 19 18 35 12 35 -5 0
-10 -5 -10 -11z"/>
<path d="M830 1438 c0 -4 4 -8 9 -8 6 0 12 4 15 8 3 5 -1 9 -9 9 -8 0 -15 -4
-15 -9z"/>
<path d="M1500 1430 c8 -5 20 -10 25 -10 6 0 3 5 -5 10 -8 5 -19 10 -25 10 -5
0 -3 -5 5 -10z"/>
<path d="M1506 1398 c3 -5 10 -6 15 -3 13 9 11 12 -6 12 -8 0 -12 -4 -9 -9z"/>
<path d="M780 1375 c7 -8 20 -14 29 -14 13 1 13 2 -1 6 -10 2 -18 9 -18 14 0
5 -5 9 -11 9 -8 0 -8 -5 1 -15z"/>
<path d="M1535 1380 c3 -5 8 -10 11 -10 2 0 4 5 4 10 0 6 -5 10 -11 10 -5 0
-7 -4 -4 -10z"/>
<path d="M2290 1385 c0 -3 5 -11 10 -18 6 -7 17 -21 26 -32 13 -17 13 -16 0
12 -15 29 -36 52 -36 38z"/>
<path d="M2337 1383 c-4 -3 -7 -11 -7 -17 0 -6 5 -5 12 2 6 6 9 14 7 17 -3 3
-9 2 -12 -2z"/>
<path d="M784 1329 c8 -12 12 -28 9 -35 -3 -8 0 -14 7 -14 6 0 8 5 5 10 -3 6
0 10 7 10 9 0 9 3 -2 10 -8 5 -11 10 -7 10 10 0 -18 30 -28 30 -3 0 1 -10 9
-21z"/>
<path d="M815 1340 c3 -5 8 -10 11 -10 2 0 4 5 4 10 0 6 -5 10 -11 10 -5 0 -7
-4 -4 -10z"/>
<path d="M1536 1342 c-2 -4 0 -14 6 -22 8 -12 9 -11 4 4 -5 14 -2 17 9 12 9
-3 13 -2 10 4 -7 12 -22 13 -29 2z"/>
<path d="M753 1295 c-5 -16 27 -49 37 -38 3 3 -1 8 -8 10 -6 3 -9 10 -6 15 4
7 2 8 -4 4 -7 -4 -12 -3 -12 3 0 5 6 12 13 14 9 4 9 6 -1 6 -7 1 -15 -6 -19
-14z"/>
<path d="M1556 1302 c-3 -5 1 -9 9 -9 8 0 12 4 9 9 -3 4 -7 8 -9 8 -2 0 -6 -4
-9 -8z"/>
<path d="M2290 1304 c0 -11 29 -34 34 -26 2 4 -4 13 -15 20 -10 7 -19 10 -19
6z"/>
<path d="M2300 1245 c0 -8 4 -15 10 -15 5 0 7 7 4 15 -4 8 -8 15 -10 15 -2 0
-4 -7 -4 -15z"/>
<path d="M1581 1234 c0 -11 3 -14 6 -6 3 7 2 16 -1 19 -3 4 -6 -2 -5 -13z"/>
<path d="M2256 1234 c-4 -9 -4 -19 -1 -22 2 -3 7 3 11 12 4 9 4 19 1 22 -2 3
-7 -3 -11 -12z"/>
<path d="M2277 1217 c-3 -7 -2 -19 3 -26 5 -10 8 -9 13 2 3 7 2 19 -3 26 -5
10 -8 9 -13 -2z"/>
<path d="M1614 1199 c-3 -6 -2 -15 3 -20 5 -5 9 -1 9 11 0 23 -2 24 -12 9z"/>
<path d="M2260 1175 c7 -8 17 -15 22 -15 5 0 3 7 -6 15 -8 8 -18 15 -22 15 -3
0 -1 -7 6 -15z"/>
<path d="M736 1144 c-19 -19 -13 -33 14 -31 10 1 17 3 15 6 -3 2 1 11 7 20 10
12 8 12 -8 -1 -28 -24 -41 -23 -19 2 21 24 14 27 -9 4z"/>
<path d="M2236 1137 c3 -10 9 -15 12 -12 3 3 0 11 -7 18 -10 9 -11 8 -5 -6z"/>
<path d="M2252 1106 c-7 -15 -17 -24 -22 -21 -6 3 -10 1 -10 -4 0 -6 4 -11 8
-11 14 0 44 38 40 51 -2 6 -9 -1 -16 -15z"/>
<path d="M2268 1085 c-9 -12 -14 -25 -11 -29 10 -10 33 -7 33 4 0 5 -8 7 -17
3 -16 -6 -16 -4 1 15 11 12 17 24 15 26 -2 2 -12 -6 -21 -19z"/>
<path d="M707 1080 c-10 -13 -10 -13 6 -1 12 9 17 10 17 2 0 -7 4 -10 9 -7 5
4 11 3 14 -1 2 -5 2 -3 1 4 -2 6 2 14 9 16 7 2 -1 4 -16 3 -16 0 -34 -8 -40
-16z"/>
<path d="M1642 1080 c0 -14 2 -19 5 -12 2 6 2 18 0 25 -3 6 -5 1 -5 -13z"/>
<path d="M2215 1049 c-4 -6 -5 -12 -2 -15 2 -3 7 2 10 11 7 17 1 20 -8 4z"/>
<path d="M1657 1044 c7 -3 9 -13 6 -22 -6 -14 -5 -15 9 -2 16 15 7 31 -17 29
-5 0 -5 -3 2 -5z"/>
<path d="M2235 1040 c-4 -6 1 -20 9 -32 9 -12 16 -17 16 -11 0 7 -4 15 -10 18
-16 10 -12 25 5 19 8 -4 15 -4 15 -1 0 10 -30 16 -35 7z"/>
<path d="M2272 1000 c0 -14 2 -19 5 -12 2 6 2 18 0 25 -3 6 -5 1 -5 -13z"/>
<path d="M2220 945 c-6 -8 -10 -19 -8 -26 2 -6 9 0 16 15 13 29 10 33 -8 11z"/>
<path d="M675 930 c-3 -5 -2 -18 4 -27 7 -14 9 -12 8 10 -2 30 -3 31 -12 17z"/>
<path d="M704 906 c0 -21 2 -34 4 -28 2 6 9 10 15 8 7 -1 9 -1 4 1 -4 3 -5 9
-1 14 3 5 1 9 -5 9 -5 0 -11 8 -14 18 -2 9 -4 -1 -3 -22z"/>
<path d="M2236 924 c-4 -9 -4 -19 -1 -22 3 -3 5 0 5 7 0 7 4 9 10 6 6 -3 7 1
4 9 -8 20 -10 20 -18 0z"/>
<path d="M2194 901 c4 -6 1 -11 -6 -11 -10 0 -10 -2 1 -9 11 -7 11 -10 -2 -17
-13 -8 -13 -11 1 -24 14 -13 15 -12 9 3 -3 9 -2 19 4 22 5 4 7 11 4 16 -4 5
-2 9 4 9 13 0 22 -15 14 -24 -11 -11 -13 -45 -4 -51 5 -3 13 0 17 6 4 8 3 9
-4 5 -8 -5 -11 0 -9 14 2 12 9 25 15 29 7 4 0 14 -20 25 -17 11 -28 14 -24 7z"/>
<path d="M710 860 c-9 -6 -10 -10 -3 -10 6 0 15 5 18 10 8 12 4 12 -15 0z"/>
<path d="M656 765 c4 -8 8 -15 10 -15 2 0 4 7 4 15 0 8 -4 15 -10 15 -5 0 -7
-7 -4 -15z"/>
<path d="M700 759 c0 -5 5 -7 10 -4 6 3 10 8 10 11 0 2 -4 4 -10 4 -5 0 -10
-5 -10 -11z"/>
<path d="M2165 757 c25 -17 67 -28 59 -16 -3 5 -14 9 -24 9 -10 0 -22 5 -25
10 -3 6 -11 10 -18 10 -6 0 -3 -6 8 -13z"/>
<path d="M655 730 c-16 -11 -25 -20 -20 -20 6 1 19 7 29 15 10 8 23 12 29 8 6
-3 7 -1 3 5 -9 15 -5 16 -41 -8z"/>
<path d="M2153 725 c0 -8 4 -12 9 -9 4 3 8 9 8 15 0 5 -4 9 -8 9 -5 0 -9 -7
-9 -15z"/>
<path d="M2176 714 c-4 -9 -4 -19 -1 -22 2 -3 7 3 11 12 4 9 4 19 1 22 -2 3
-7 -3 -11 -12z"/>
<path d="M661 703 c-16 -14 -18 -22 -10 -33 9 -13 10 -13 6 0 -2 8 8 23 22 32
14 10 21 18 15 18 -7 0 -21 -8 -33 -17z"/>
<path d="M2195 689 c-4 -6 -5 -12 -2 -15 2 -3 7 2 10 11 7 17 1 20 -8 4z"/>
<path d="M685 680 c3 -5 8 -10 11 -10 2 0 4 5 4 10 0 6 -5 10 -11 10 -5 0 -7
-4 -4 -10z"/>
<path d="M625 650 c-4 -12 -2 -27 3 -32 8 -8 9 -4 6 13 -5 19 -4 21 5 9 13
-18 15 -1 2 19 -7 11 -10 9 -16 -9z"/>
<path d="M2153 650 c-18 -14 -20 -19 -8 -24 20 -7 45 3 45 19 0 23 -14 24 -37
5z m22 -9 c-3 -6 -11 -11 -17 -11 -6 0 -6 6 2 15 14 17 26 13 15 -4z"/>
<path d="M668 643 c7 -3 16 -2 19 1 4 3 -2 6 -13 5 -11 0 -14 -3 -6 -6z"/>
<path d="M657 623 c-9 -9 -9 -41 1 -46 4 -3 7 8 8 24 1 31 1 32 -9 22z"/>
<path d="M2165 601 c-3 -5 -2 -12 3 -15 5 -3 9 1 9 9 0 17 -3 19 -12 6z"/>
<path d="M612 564 c-7 -8 -8 -14 -3 -14 10 0 25 19 20 25 -2 1 -10 -3 -17 -11z"/>
<path d="M2140 571 c-8 -6 -18 -7 -23 -4 -5 3 -3 -4 5 -16 7 -12 17 -21 22
-21 4 0 3 7 -4 15 -10 12 -7 14 19 10 17 -2 29 0 26 5 -3 5 -13 6 -22 3 -11
-4 -14 -3 -9 5 9 14 6 15 -14 3z"/>
<path d="M640 562 c0 -7 -10 -22 -22 -34 -13 -13 -16 -19 -6 -16 9 4 19 3 24
0 5 -4 6 -3 2 2 -4 5 -2 18 3 28 6 11 8 22 5 26 -3 3 -6 0 -6 -6z"/>
<path d="M2160 519 c0 -5 5 -7 10 -4 6 3 10 8 10 11 0 2 -4 4 -10 4 -5 0 -10
-5 -10 -11z"/>
<path d="M599 493 c-1 -5 -1 -11 0 -15 0 -5 -4 -8 -11 -8 -6 0 -9 -3 -6 -6 9
-9 48 15 47 29 0 9 -2 9 -6 0 -2 -7 -9 -13 -14 -13 -6 0 -7 5 -4 10 3 6 4 10
1 10 -3 0 -7 -3 -7 -7z"/>
<path d="M2154 489 c-3 -6 -2 -15 3 -20 5 -5 9 -1 9 11 0 23 -2 24 -12 9z"/>
<path d="M2090 481 c0 -10 30 -25 44 -22 5 1 6 -5 2 -14 -3 -9 -6 -19 -6 -21
0 -3 -4 -2 -10 1 -5 3 -10 1 -10 -4 0 -16 20 -13 26 4 4 8 11 12 16 9 6 -4 5
3 -2 15 -6 12 -15 19 -21 16 -5 -4 -12 1 -15 9 -7 17 -24 22 -24 7z"/>
<path d="M573 436 c-3 -6 -3 -8 2 -4 4 4 14 0 22 -10 14 -16 14 -16 9 1 -6 18
9 24 17 7 3 -6 4 -5 3 2 -3 16 -44 19 -53 4z"/>
<path d="M570 402 c0 -4 9 -13 21 -20 16 -10 19 -10 13 -1 -5 8 -2 11 8 7 8
-4 15 0 15 7 0 10 -5 11 -19 4 -12 -6 -18 -6 -18 1 0 5 -4 10 -10 10 -5 0 -10
-3 -10 -8z"/>
<path d="M2136 393 c-6 -14 -5 -15 5 -6 7 7 10 15 7 18 -3 3 -9 -2 -12 -12z"/>
<path d="M582 365 c4 -4 0 -14 -10 -21 -9 -7 -12 -14 -6 -14 6 0 17 6 23 14 9
11 9 16 -1 22 -7 4 -10 4 -6 -1z"/>
<path d="M2108 343 c6 -2 18 -2 25 0 6 3 1 5 -13 5 -14 0 -19 -2 -12 -5z"/>
<path d="M580 321 c-8 -6 -18 -7 -22 -5 -4 3 -8 0 -8 -6 0 -8 7 -9 18 -5 9 4
22 8 29 8 7 0 10 4 7 9 -6 10 -6 10 -24 -1z"/>
<path d="M2096 314 c-4 -9 -1 -23 5 -30 6 -7 7 -19 3 -26 -5 -10 -4 -10 6 -1
7 7 9 17 4 25 -5 7 -7 21 -6 31 4 22 -4 22 -12 1z"/>
<path d="M590 283 c0 -15 -2 -16 -10 -3 -6 9 -10 10 -10 3 0 -22 19 -24 30 -3
7 13 7 20 0 20 -5 0 -10 -8 -10 -17z"/>
<path d="M2070 283 c17 -8 11 -23 -7 -17 -12 4 -9 -1 7 -15 14 -11 30 -21 35
-21 6 0 3 5 -5 10 -8 5 -15 17 -15 26 0 10 -6 18 -13 20 -7 1 -8 0 -2 -3z"/>
<path d="M550 252 c0 -15 11 -21 27 -15 12 5 12 7 1 14 -17 11 -28 11 -28 1z"/>
<path d="M530 238 c0 -9 7 -22 17 -29 15 -13 15 -12 3 11 -17 34 -20 36 -20
18z"/>
<path d="M579 228 c-6 -22 -5 -38 3 -38 6 0 8 6 5 14 -4 9 1 17 11 19 16 4 15
5 0 6 -10 0 -18 0 -19 -1z"/>
<path d="M2074 214 c9 -8 16 -20 16 -26 0 -6 3 -9 6 -6 8 9 -14 48 -27 48 -6
0 -3 -7 5 -16z"/>
<path d="M2038 202 c-4 -12 -1 -25 5 -29 7 -3 9 -3 5 2 -4 4 0 14 10 22 9 8
12 12 5 9 -6 -4 -13 -1 -15 6 -3 7 -7 2 -10 -10z"/>
<path d="M524 190 c0 -13 4 -16 10 -10 7 7 7 13 0 20 -6 6 -10 3 -10 -10z"/>
<path d="M553 183 c4 -6 4 -13 0 -16 -5 -2 -3 -2 4 -1 6 2 14 -2 16 -9 2 -7 7
-9 11 -6 3 3 -4 14 -16 25 -12 10 -18 14 -15 7z"/>
<path d="M2065 170 c-7 -21 0 -40 16 -40 5 0 9 5 9 11 0 5 -4 7 -10 4 -5 -3
-10 1 -10 10 0 9 4 13 10 10 6 -3 7 1 4 9 -8 21 -11 20 -19 -4z"/>
<path d="M532 145 c9 -10 21 -16 28 -13 7 2 -1 10 -16 17 -27 12 -28 11 -12
-4z"/>
<path d="M2020 140 c0 -5 7 -7 15 -4 8 4 15 8 15 10 0 2 -7 4 -15 4 -8 0 -15
-4 -15 -10z"/>
<path d="M513 125 c0 -8 4 -15 9 -15 4 0 8 4 8 9 0 6 -4 12 -8 15 -5 3 -9 -1
-9 -9z"/>
<path d="M539 99 c-13 -11 -18 -18 -11 -14 6 3 12 2 12 -3 0 -6 8 -13 17 -16
14 -6 14 -3 -3 15 -15 17 -15 21 -3 17 9 -4 16 -1 16 8 0 18 0 18 -28 -7z"/>
<path d="M505 59 c-4 -6 -4 -13 -1 -16 3 -4 6 -1 6 6 0 7 5 9 10 6 6 -3 10 -1
10 4 0 14 -17 14 -25 0z"/>
<path d="M166 45 c-3 -8 -1 -15 3 -15 5 0 11 7 15 15 3 8 1 15 -3 15 -5 0 -11
-7 -15 -15z"/>
<path d="M461 51 c-11 -7 -9 -12 10 -22 21 -11 23 -11 11 3 -10 13 -10 17 0
21 7 3 9 6 3 6 -5 0 -16 -3 -24 -8z"/>
<path d="M1610 45 c0 -8 2 -15 4 -15 2 0 6 7 10 15 3 8 1 15 -4 15 -6 0 -10
-7 -10 -15z"/>
<path d="M1956 45 c4 -8 11 -15 16 -15 6 0 5 6 -2 15 -7 8 -14 15 -16 15 -2 0
-1 -7 2 -15z"/>
<path d="M236 42 c-3 -5 1 -9 9 -9 8 0 15 4 15 9 0 10 -17 10 -24 0z"/>
<path d="M420 35 c0 -19 6 -19 14 0 3 8 1 15 -4 15 -6 0 -10 -7 -10 -15z"/>
<path d="M532 41 c-11 -7 -10 -9 3 -14 9 -4 14 -3 10 2 -3 5 1 12 7 14 7 3 9
6 3 6 -5 0 -16 -3 -23 -8z"/>
<path d="M1591 34 c0 -11 3 -14 6 -6 3 7 2 16 -1 19 -3 4 -6 -2 -5 -13z"/>
<path d="M1685 40 c3 -5 8 -10 11 -10 2 0 4 5 4 10 0 6 -5 10 -11 10 -5 0 -7
-4 -4 -10z"/>
<path d="M1895 40 c3 -5 11 -10 16 -10 6 0 7 5 4 10 -3 6 -11 10 -16 10 -6 0
-7 -4 -4 -10z"/>
<path d="M2049 37 c6 -8 7 -18 3 -22 -4 -5 -2 -5 5 -1 14 8 6 36 -9 36 -7 0
-6 -5 1 -13z"/>
<path d="M1800 29 c0 -5 -4 -8 -9 -4 -5 3 -12 1 -15 -4 -4 -5 2 -8 11 -7 15 3
33 26 19 26 -3 0 -6 -5 -6 -11z"/>
<path d="M2011 33 c-1 -17 16 -25 25 -12 4 7 3 9 -4 5 -5 -3 -13 0 -15 6 -4 9
-6 10 -6 1z"/>
<path d="M135 20 c3 -5 8 -10 11 -10 2 0 4 5 4 10 0 6 -5 10 -11 10 -5 0 -7
-4 -4 -10z"/>
<path d="M336 22 c-3 -4 4 -9 15 -9 23 -2 25 3 4 10 -8 4 -16 3 -19 -1z"/>
<path d="M395 20 c-3 -5 -1 -10 4 -10 6 0 11 5 11 10 0 6 -2 10 -4 10 -3 0 -8
-4 -11 -10z"/>
<path d="M1835 20 c-3 -5 -1 -10 4 -10 6 0 11 5 11 10 0 6 -2 10 -4 10 -3 0
-8 -4 -11 -10z"/>
<path d="M1935 20 c3 -5 8 -10 11 -10 2 0 4 5 4 10 0 6 -5 10 -11 10 -5 0 -7
-4 -4 -10z"/>
</g>
</svg>
